PathFileType	4	(X/Y/Z)	Patient4_TMGait_0pt4_03_right_14.trc.trc
DataRate	CameraRate	NumFrames	NumMarkers	Units	OrigDataRate	OrigDataStartFrame	OrigNumFrames
74.074074074074	74.074074074074	4	33	mm	74.074074074074	106	       141
Frame#	Time	Sacral			L.Shoulder			Chest			R.Shoulder			Neck			R.ASIS			L.ASIS			R.Thigh.Superior			R.Thigh.Lateral			R.Thigh.Inferior			R.Patella			L.Thigh.Superior			L.Thigh.Lateral			L.Thigh.Inferior			L.Patella			L.Shank.Superior			L.Shank.Lateral			L.Shank.Inferior			R.Shank.Superior			R.Shank.Lateral			R.Shank.Inferior			R.Heel			R.Midfoot.Superior			R.Midfoot.Lateral			R.Toe			L.Heel			L.Midfoot.Lateral			L.Midfoot.Superior			L.Toe			L.Elbow			L.Wrist			R.Elbow			R.Wrist			
		X1	Y1	Z1	X2	Y2	Z2	X3	Y3	Z3	X4	Y4	Z4	X5	Y5	Z5	X6	Y6	Z6	X7	Y7	Z7	X8	Y8	Z8	X9	Y9	Z9	X10	Y10	Z10	X11	Y11	Z11	X12	Y12	Z12	X13	Y13	Z13	X14	Y14	Z14	X15	Y15	Z15	X16	Y16	Z16	X17	Y17	Z17	X18	Y18	Z18	X19	Y19	Z19	X20	Y20	Z20	X21	Y21	Z21	X22	Y22	Z22	X23	Y23	Z23	X24	Y24	Z24	X25	Y25	Z25	X26	Y26	Z26	X27	Y27	Z27	X28	Y28	Z28	X29	Y29	Z29	X30	Y30	Z30	X31	Y31	Z31	X32	Y32	Z32	X33	Y33	Z33	

106	18.807500000000	832.699706160289	1011.718722351587	421.316548775186	1038.851622862897	1435.143706012184	238.180081891752	1126.045688751844	1369.107358055163	408.915989583018	1028.443344811771	1446.001904484546	574.061358417335	1011.423486834973	1499.736055331961	392.859632438208	1053.733905976424	953.878794578686	554.714002746547	1058.966967075237	963.146697893761	281.235602955956	1141.391062472262	787.798619445669	530.128970763881	1104.837599323400	666.748361394668	606.926801376203	1198.716790137618	629.450678928954	532.691575787170	1221.720614216927	520.147980856985	559.488868907633	1099.197337197918	746.524108170155	315.200350716690	1006.609216174698	635.032001813484	249.882414451806	1082.266871340839	553.719045000843	317.959606314483	1078.700571386305	484.045828183923	327.827277865840	1047.384509607183	412.945505913538	317.914275351878	954.321087290930	304.920320695644	261.652072801650	990.817059570304	190.177465261744	334.463567980610	1151.213738712044	440.304369934411	565.901285776734	1031.553647981634	391.460636239937	622.698613243159	1028.993302587315	280.221351460287	576.873932298897	837.249092960659	208.590992077239	545.315800610806	1004.375649904864	148.969158918392	586.544374181887	894.701010393387	144.510698552283	616.455069888921	1070.650325350472	35.634144065439	607.724631823344	852.975541902100	39.099649076088	368.309447311957	928.952834910277	35.599868358567	289.681447669597	1012.088205712701	95.882457490514	320.505463232357	1141.382621956557	41.100150892970	293.506691775681	1014.227634720889	1098.430057080293	89.564295610107	1209.714448605509	927.493079576623	121.938667608667	948.808936561624	1109.983880891235	700.484526235539	997.009423715217	856.052641009793	737.528517231720	
107	18.821000000000	831.757950161409	1012.619065077441	419.828482920533	1040.721404548195	1435.474613467942	237.835149900216	1126.025215364803	1369.458752726326	409.463949505667	1026.997305699775	1446.723788580345	573.533070807836	1011.708222605212	1500.189989747329	392.315708088168	1051.634547557624	954.889734418415	555.144266721491	1059.421121692440	963.735379967163	281.659777033111	1140.130176304698	790.000372764871	530.609514214160	1104.552034337509	668.622854864932	607.524422797819	1198.392723811170	631.887907400731	533.205531661474	1223.016293640275	524.029457231039	560.195609557564	1096.743157206642	745.832213494682	316.424032370696	1003.371154698365	635.313263217962	249.917609527043	1077.462033340556	553.237605794344	318.542938565416	1073.109240670855	483.732650004091	328.187603780403	1041.917491986264	413.001051804724	317.978750319486	948.853316367082	305.022389327715	261.654197632694	985.304344000096	190.229831444018	334.480541634205	1155.884862066796	442.241191433984	566.477800293087	1039.321732578903	387.395876190033	623.595559713481	1042.287012330581	276.314797871681	577.494932194903	854.495804754767	194.225807924504	546.515010008358	1024.689734852239	144.424390280606	586.914748708313	915.771807634744	133.628348218436	617.409098152521	1097.535435564717	35.583275600883	607.756036765534	847.504833126880	39.089473667501	368.293368010087	923.494906987314	35.592532770587	289.671542856816	1006.639605094920	95.876133415822	320.487652867650	1135.927982859302	41.101180324867	293.479796676280	1018.274369216574	1098.868101278239	88.942714896897	1217.073752259992	933.085871500071	125.476282235514	944.777585270876	1110.953649359415	699.027488296917	990.706341808699	856.725097515257	736.727138480999	
108	18.834500000000	830.812377135105	1013.407496847300	418.450844771101	1042.686068750499	1435.620999383768	237.671025327452	1126.099136646637	1369.597134290981	410.159032755764	1025.714022033433	1447.263512367550	573.159760228742	1012.102555787809	1500.484410215940	391.935109982473	1049.507399564606	955.661336706497	555.714416547455	1059.975563211737	964.305512856793	282.175849978360	1138.442127904551	791.510866882635	531.335386405487	1103.332322662665	669.873157710386	608.266957142584	1196.995112265240	633.418146412305	533.868032300302	1223.021461564568	527.313071496123	560.950913040919	1094.206028733125	745.087064862559	317.776600977251	1000.220201280995	635.533072386427	249.973802919915	1072.734545206052	552.731211958131	319.170358535047	1067.596184165750	483.383921982795	328.566133879710	1036.530896004592	413.001712090880	318.070884561637	943.460211444408	305.086554416404	261.666761866051	979.822823223860	190.243752025487	334.513956808198	1159.757273814387	443.715929072913	567.194184821571	1047.144001595114	382.444472974776	624.928579006818	1056.161892441963	271.870221252106	578.493592001047	873.484424827823	178.569439924176	548.379543206457	1046.343134080084	139.664553935867	587.789270872671	938.714769553298	122.114160841671	619.026404595073	1126.016407520810	36.096099633067	608.344859420330	842.045547691139	39.071005151552	368.277712069667	918.037429411231	35.576210174768	289.662369083452	1001.189067331648	95.862793380191	320.480602914191	1130.473662439498	41.101753091340	293.460719034698	1022.203447246807	1099.092359499201	88.620316285213	1224.062935584044	938.506659389057	129.380134276249	941.275476767401	1111.634128727639	697.705281622915	985.484450001611	857.185616218084	735.870339183393	
109	18.848000000000	829.877151420002	1014.057530849684	417.205482376106	1044.707053029413	1435.571091268969	237.695969471929	1126.260518663699	1369.509323642550	410.997194137876	1024.603974948303	1447.598029862409	572.956769820138	1012.600833314398	1500.606963534586	391.729893298479	1047.398833009911	956.171752905744	556.421964091085	1060.594066109293	964.814174985111	282.777232708230	1136.316901517720	792.249193400332	532.292118297456	1101.128378759175	670.447516144022	609.125390248695	1194.486221296333	633.981816544275	534.643429163040	1221.692289787137	529.929740261226	561.678918659155	1091.639379689305	744.288420848474	319.206879108936	997.192607650831	635.676061901381	250.049742970825	1068.151242148754	552.190078597923	319.824822026355	1062.237512296064	482.986953631069	328.957177892608	1031.287125440786	412.927661865394	318.192975672026	938.186702204347	305.107290319190	261.692103977505	974.397081936325	190.209214096655	334.565493910793	1162.760717116917	444.753345660695	568.002536361856	1054.964073131818	376.817158932687	626.648269628512	1070.454542635749	267.161909241914	579.825103231618	894.141932858655	162.127728017377	550.841550372745	1069.055221335073	135.074663741297	589.128559651080	963.320097507094	110.473128392478	621.246582624981	1155.623807837619	37.552684928370	609.470678828515	836.598366249077	39.048391150146	368.261094529004	912.581219197019	35.552964497096	289.652480898791	995.738179102485	95.841188207778	320.484507666610	1125.019779163330	41.097318637322	293.449018047982	1026.030774593426	1099.081101143915	88.603051284731	1230.686493996876	943.695044828341	133.618771271252	938.316201494335	1111.996145578588	696.533800945502	981.350879671497	857.393510683648	734.975625999189	
